# xmcd CD database file
#
# Track frame offsets:
#	150
#	52720
#	85044
#	126423
#	169942
#	182602
#	198062
#	220907
#	249525
#	288621
#
# Disc length: 4192 seconds
#
# Revision: 0
# Processed by: cddbd v1.5.2PL0 Copyright (c) Steve Scherf et al.
# Submitted via: CDex 1.51
#
DISCID=89105e0a
DTITLE=Steven vrancken - 2011 Into Resonance
DYEAR=2011
DGENRE=New Age
TTITLE0=Nature's Welcome
TTITLE1=Surrender
TTITLE2=carrying You (voice acc.)
TTITLE3=Arising Within
TTITLE4=Singing Clouds  (voice acc.)
TTITLE5=Touched by life
TTITLE6=Embracing Spirit
TTITLE7=All is well  (voice acc.)
TTITLE8=Beauty of being
TTITLE9=Into Resonance
EXTD=YEAR: 2011
EXTT0=
EXTT1=
EXTT2=
EXTT3=
EXTT4=
EXTT5=
EXTT6=
EXTT7=
EXTT8=
EXTT9=
PLAYORDER=
